<svg width="100" height="100" viewBox="0 0 100 100" fill="none" xmlns="http://www.w3.org/2000/svg">
<path fill-rule="evenodd" clip-rule="evenodd" d="M50 100C77.6142 100 100 77.6142 100 50C100 22.3858 77.6142 0 50 0C22.3858 0 0 22.3858 0 50C0 77.6142 22.3858 100 50 100ZM5 50C5 25.15 25.15 5 50 5C74.85 5 95 25.15 95 50C95 74.85 74.85 95 50 95C25.15 95 5 74.85 5 50ZM83.99 49H92.99C92.86 43.33 91.63 37.93 89.51 33H81.49C83.02 37.95 83.9 43.35 83.99 49ZM80.83 31H88.59C86.15 26.05 82.79 21.65 78.73 18H73.91C76.76 21.73 79.11 26.13 80.83 31ZM67.23 31H78.71C77.11 26.66 74.98 22.74 72.45 19.39C72.09 18.91 71.72 18.45 71.35 18H63.36C64.95 21.73 66.27 26.13 67.23 31ZM72.28 16H76.33C73.01 13.42 69.3 11.32 65.3 9.8C67.82 11.48 70.17 13.57 72.28 16ZM62.45 16H69.57C65.85 12.12 61.51 9.35 56.82 7.98C58.9 9.87 60.8 12.61 62.45 16ZM55.98 9.95C54.3 8.27 52.63 7.35 51 7.08V16H60.21C58.9 13.48 57.47 11.44 55.98 9.95ZM49 16V7.08C47.37 7.35 45.7 8.27 44.02 9.95C42.53 11.44 41.1 13.48 39.79 16H49ZM30.43 16H37.55C39.2 12.6 41.1 9.87 43.18 7.98C38.49 9.36 34.15 12.12 30.43 16ZM27.72 16C29.84 13.57 32.18 11.48 34.7 9.8C30.71 11.32 26.99 13.42 23.67 16H27.72ZM26.09 18H21.27C17.21 21.65 13.85 26.05 11.41 31H19.17C20.88 26.13 23.24 21.73 26.09 18ZM18.5 33H10.49C8.37 37.93 7.14 43.33 7.01 49H16C16.09 43.35 16.97 37.95 18.5 33ZM16 51H7.01C7.14 56.67 8.37 62.07 10.49 67H18.5C16.97 62.05 16.09 56.65 16 51ZM19.16 69H11.4C13.84 73.95 17.2 78.35 21.26 82H26.08C23.23 78.27 20.88 73.87 19.16 69ZM27.71 84H23.66C26.98 86.58 30.69 88.68 34.69 90.2C32.17 88.52 29.82 86.43 27.71 84ZM37.54 84H30.42C34.14 87.88 38.48 90.65 43.17 92.02C41.09 90.13 39.19 87.39 37.54 84ZM44.01 90.05C45.69 91.73 47.36 92.65 48.99 92.92V84H39.78C41.09 86.52 42.52 88.56 44.01 90.05ZM48.99 82V74.26H49C49.33 74.03 49.66 73.79 50 73.54C50.34 73.79 50.67 74.03 51 74.26V82.01H61.17C61.2167 81.9033 61.2634 81.7977 61.31 81.6921C61.4034 81.4811 61.4967 81.27 61.59 81.05C62.02 80.03 62.42 78.96 62.81 77.84C63.62 77.7 64.41 77.47 65.15 77.13C64.6 78.85 64 80.48 63.35 82H71.34C71.72 81.55 72.08 81.08 72.44 80.61C74.97 77.26 77.1 73.34 78.7 69H70.84C70.89 68.68 70.94 68.35 70.97 68.03C70.9999 67.7686 71.013 67.5128 71.0261 67.2584C71.0305 67.1721 71.0349 67.0861 71.04 67H79.39C80.97 62.08 81.89 56.68 81.99 51V49C81.89 43.32 80.97 37.92 79.39 33H67.59C67.82 34.36 68.02 35.76 68.2 37.19H68.19C67.68 37.07 67.13 37.05 66.61 37.14C66.4857 37.1578 66.3692 37.1913 66.2466 37.2266C66.2312 37.2311 66.2157 37.2355 66.2 37.24C66.02 35.79 65.81 34.37 65.57 33H61.39C61.51 32.35 61.5 31.67 61.36 31H65.19C64.27 26.49 63.05 22.42 61.59 18.96C61.45 18.63 61.31 18.31 61.17 18H51V28.95C50.6 29.22 50.2 29.51 49.83 29.83C49.58 29.54 49.3 29.24 49 28.94V18H38.83C38.7833 18.1067 38.7366 18.2123 38.69 18.3179C38.5966 18.5289 38.5033 18.74 38.41 18.96C37.74 20.55 37.12 22.26 36.56 24.09C35.82 24.17 35.09 24.31 34.35 24.51C35.03 22.17 35.8 19.99 36.65 18H28.66C28.28 18.45 27.92 18.92 27.56 19.39C25.03 22.74 22.9 26.66 21.3 31H24.54C24.19 31.61 24 32.29 24 33H20.61C19.03 37.92 18.11 43.32 18.01 49V51C18.11 56.68 19.03 62.08 20.61 67H28.96C28.97 67.33 28.99 67.67 29.03 68.03C29.0464 68.2926 29.0898 68.5619 29.1324 68.827C29.1417 68.8849 29.151 68.9426 29.16 69H21.29C22.89 73.34 25.02 77.26 27.55 80.61C27.91 81.09 28.28 81.55 28.65 82H36.64C35.99 80.48 35.39 78.85 34.84 77.13C35.57 77.46 36.37 77.69 37.18 77.83C37.57 78.95 37.97 80.02 38.4 81.04C38.54 81.37 38.68 81.69 38.82 82H48.99ZM50.99 84V92.92C52.62 92.65 54.29 91.73 55.97 90.05C57.46 88.56 58.89 86.52 60.2 84H50.99ZM69.56 84H62.44C60.79 87.4 58.89 90.13 56.81 92.02C61.5 90.64 65.84 87.88 69.56 84ZM72.27 84C70.15 86.43 67.81 88.52 65.29 90.2C69.28 88.68 73 86.58 76.32 84H72.27ZM73.9 82H78.72C82.78 78.35 86.14 73.95 88.58 69H80.82C79.11 73.87 76.75 78.27 73.9 82ZM81.49 67H89.51C91.63 62.07 92.86 56.67 92.99 51H83.99C83.9 56.65 83.02 62.05 81.49 67ZM75.07 44.41C75.85 45 76.58 45.69 77.14 46.56L77.11 46.5C77.67 47.36 78.02 48.44 77.97 49.54C77.97 49.76 77.94 49.98 77.9 50.19C77.8964 50.2114 77.8916 50.2315 77.8869 50.2512C77.8783 50.2869 77.87 50.3214 77.87 50.36C77.86 50.45 77.84 50.54 77.81 50.62C77.805 50.645 77.7975 50.6675 77.79 50.69C77.7825 50.7125 77.775 50.735 77.77 50.76C77.75 50.8 77.74 50.85 77.73 50.89C77.7209 50.9173 77.7127 50.9445 77.7047 50.9715C77.6861 51.0336 77.6679 51.0942 77.64 51.15C77.625 51.185 77.61 51.2225 77.595 51.26C77.58 51.2975 77.565 51.335 77.55 51.37C77.48 51.55 77.41 51.72 77.31 51.88L77.12 52.23C77.08 52.31 77.03 52.38 76.98 52.45C76.97 52.47 76.9575 52.4875 76.945 52.505C76.9325 52.5225 76.92 52.54 76.91 52.56C76.32 53.43 75.58 54.15 74.8 54.77C74.02 55.4 73.19 55.94 72.33 56.41C71.47 56.88 70.59 57.29 69.7 57.67C68.8 58.03 67.9 58.37 66.98 58.66L66.02 58.96C66.25 59.84 66.45 60.72 66.62 61.62C66.86 62.91 67.03 64.22 67.05 65.56C67.06 66.23 67.05 66.9 66.97 67.58C66.95 67.84 66.91 68.11 66.86 68.38C66.84 68.45 66.83 68.52 66.82 68.59C66.8 68.7 66.78 68.81 66.75 68.92C66.745 68.95 66.7375 68.98 66.73 69.01C66.7225 69.04 66.715 69.07 66.71 69.1C66.67 69.27 66.63 69.44 66.57 69.61C66.38 70.29 66.07 70.96 65.65 71.58C65.23 72.2 64.67 72.76 63.99 73.17C63.31 73.58 62.54 73.81 61.78 73.9C61.02 73.99 60.26 73.95 59.55 73.81C59.4062 73.794 59.2624 73.7589 59.1238 73.725C59.0888 73.7165 59.0542 73.708 59.02 73.7C59.005 73.7 58.9875 73.695 58.97 73.69C58.9525 73.685 58.935 73.68 58.92 73.68L58.85 73.66C58.8128 73.6507 58.7756 73.6424 58.7387 73.6341C58.6565 73.6157 58.5759 73.5976 58.5 73.57C58.4302 73.5501 58.3703 73.5301 58.3105 73.5102L58.31 73.51C58.03 73.43 57.75 73.34 57.49 73.23C56.82 72.98 56.2 72.68 55.59 72.36C54.37 71.72 53.25 70.95 52.17 70.14C51.41 69.56 50.68 68.96 49.98 68.33C49.28 68.96 48.55 69.57 47.79 70.14C46.71 70.95 45.59 71.71 44.37 72.36C43.75 72.68 43.13 72.99 42.47 73.23C42.22 73.33 41.95 73.42 41.69 73.5C41.655 73.51 41.6175 73.5225 41.58 73.535C41.5425 73.5475 41.505 73.56 41.47 73.57C41.3967 73.5967 41.3233 73.6144 41.25 73.6322C41.2133 73.6411 41.1767 73.65 41.14 73.66C41.11 73.67 41.0775 73.6775 41.045 73.685C41.0125 73.6925 40.98 73.7 40.95 73.71C40.78 73.75 40.6 73.79 40.42 73.82C39.71 73.96 38.95 74 38.19 73.91C37.43 73.82 36.66 73.58 35.98 73.18C35.3 72.77 34.74 72.21 34.32 71.59C33.9 70.97 33.6 70.3 33.4 69.62C33.34 69.45 33.3 69.28 33.26 69.11C33.2558 69.0888 33.2497 69.0658 33.2434 69.0417C33.2348 69.0091 33.2258 68.9745 33.22 68.94C33.209 68.874 33.195 68.811 33.1813 68.7494C33.17 68.699 33.159 68.6495 33.15 68.6C33.13 68.53 33.12 68.46 33.11 68.39C33.1013 68.3332 33.092 68.2759 33.0828 68.2182C33.0496 68.012 33.0156 67.801 33 67.59C32.92 66.91 32.92 66.24 32.92 65.57C32.95 64.24 33.11 62.92 33.35 61.63C33.52 60.73 33.72 59.85 33.95 58.98L33.9497 58.9799C33.6698 58.8999 33.3899 58.82 33.12 58.73C32.2 58.44 31.3 58.11 30.4 57.75C29.51 57.38 28.63 56.98 27.77 56.51C26.91 56.04 26.08 55.51 25.29 54.9C24.5 54.29 23.75 53.58 23.15 52.73L23.12 52.69L23.12 52.6899C22.98 52.49 22.84 52.29 22.72 52.06C22.71 52.045 22.7025 52.03 22.695 52.015C22.6875 52 22.68 51.985 22.67 51.97C22.6567 51.946 22.6433 51.9227 22.6302 51.8997C22.594 51.8366 22.5593 51.776 22.53 51.71L22.37 51.34C22.29 51.16 22.23 50.97 22.18 50.78L22.12 50.57C22.1 50.48 22.08 50.39 22.07 50.3C22.06 50.26 22.05 50.21 22.05 50.17C22.05 50.145 22.045 50.1225 22.04 50.1C22.035 50.0775 22.03 50.055 22.03 50.03C22.01 49.94 22 49.85 22 49.76C21.93 48.66 22.24 47.57 22.78 46.69C23.32 45.8 24.04 45.1 24.81 44.5L25.1 44.27L25.4 44.07L25.58 43.95C25.6182 43.9254 25.6564 43.9001 25.6949 43.8747C25.7972 43.8069 25.901 43.7382 26.01 43.68C26.07 43.65 26.14 43.61 26.2 43.57C26.27 43.53 26.3425 43.4875 26.415 43.445C26.4875 43.4025 26.56 43.36 26.63 43.32L27.27 42.99C28.98 42.15 30.77 41.56 32.59 41.12C32.47 41.16 32.36 41.21 32.25 41.26C31.5 41.58 30.76 41.9 30.04 42.27C29.21 42.67 28.41 43.13 27.64 43.63C26.88 44.13 26.15 44.68 25.51 45.29C24.87 45.9 24.31 46.59 23.96 47.33C23.6 48.07 23.47 48.85 23.58 49.6C23.69 50.35 24.08 51.05 24.59 51.68C25.11 52.31 25.76 52.86 26.47 53.35C27.18 53.84 27.95 54.26 28.75 54.65C30.36 55.41 32.07 56 33.81 56.48C34.08 56.56 34.36 56.63 34.6399 56.7L34.64 56.7C34.92 55.85 35.22 55.01 35.54 54.18C35.05 52.78 34.77 51.27 34.77 49.65C34.77 37.07 44.8 35.71 48.19 36.63C45.17 39.01 43.23 42.35 42.71 46.49C42.18 50.74 43.44 54.8 45.89 57.9C44.11 55.03 43.26 51.54 43.72 47.92C44.36 42.89 46.99 38.02 51.48 36.69C54.96 35.66 65.29 36.64 65.29 49.66C65.29 51.3 65 52.84 64.49 54.26C64.8 55.06 65.09 55.88 65.36 56.7L65.3604 56.6999C65.6802 56.6199 66.0001 56.54 66.32 56.45C68.07 55.97 69.77 55.37 71.37 54.6C72.16 54.2 72.93 53.77 73.64 53.28C74.34 52.78 74.98 52.22 75.49 51.59C76 50.96 76.36 50.25 76.44 49.5C76.53 48.75 76.37 47.96 75.99 47.23C75.61 46.5 75.04 45.82 74.39 45.22C73.74 44.62 73.01 44.07 72.24 43.58C71.47 43.09 70.67 42.63 69.83 42.23C69.1 41.85 68.35 41.53 67.59 41.21C67.5251 41.1864 67.4636 41.1593 67.4036 41.1328C67.3619 41.1145 67.321 41.0964 67.28 41.08C69.1 41.51 70.9 42.09 72.61 42.92C73.47 43.32 74.29 43.83 75.07 44.41ZM36.99 57.24C36.6 56.59 36.24 55.91 35.94 55.21V55.22C35.77 55.78 35.61 56.34 35.46 56.91C35.97 57.03 36.48 57.14 36.99 57.24ZM43.27 70.45C44.31 69.82 45.29 69.07 46.24 68.26L46.23 68.23C46.86 67.69 47.48 67.12 48.07 66.53L48.03 66.49C45.82 65.52 42.16 63.39 39.25 60.21C39.1693 60.1965 39.0865 60.1811 39.0027 60.1654C38.8996 60.1461 38.7948 60.1265 38.69 60.11C37.42 59.87 36.15 59.6 34.89 59.26C34.72 60.11 34.58 60.97 34.47 61.82C34.31 63.08 34.23 64.34 34.28 65.58C34.31 66.2 34.35 66.82 34.46 67.42C34.49 67.65 34.54 67.88 34.59 68.1C34.6 68.135 34.6075 68.17 34.615 68.205C34.6225 68.24 34.63 68.275 34.64 68.31C34.66 68.4 34.69 68.49 34.72 68.58C34.7252 68.5955 34.7303 68.6104 34.7353 68.6247C34.7497 68.6658 34.7626 68.7029 34.77 68.74C34.774 68.754 34.778 68.768 34.782 68.7821C34.8182 68.9097 34.856 69.043 34.91 69.16C35.31 70.26 35.99 71.18 36.89 71.66C37.8 72.12 38.91 72.15 40.02 71.87C40.1148 71.8554 40.215 71.8249 40.3165 71.7939C40.3542 71.7824 40.3921 71.7708 40.43 71.76C40.455 71.75 40.4825 71.7425 40.51 71.735C40.5375 71.7275 40.565 71.72 40.59 71.71C40.6617 71.6941 40.7271 71.6718 40.7963 71.6482C40.8139 71.6422 40.8317 71.6361 40.85 71.63C40.885 71.615 40.92 71.6025 40.955 71.59C40.99 71.5775 41.025 71.565 41.06 71.55C41.26 71.48 41.47 71.4 41.67 71.3C42.22 71.06 42.75 70.76 43.27 70.45ZM64.54 56.89C64.4 56.34 64.24 55.8 64.08 55.26C63.78 55.93 63.43 56.59 63.05 57.21C63.55 57.11 64.04 57.01 64.54 56.89ZM65.4 68.08C65.45 67.87 65.5 67.65 65.53 67.43L65.52 67.44C65.63 66.84 65.67 66.22 65.7 65.6C65.75 64.36 65.66 63.1 65.51 61.84C65.41 60.98 65.26 60.12 65.09 59.27C63.88 59.6 62.66 59.87 61.43 60.1C61.19 60.15 60.96 60.19 60.73 60.23C57.87 63.32 54.31 65.43 52.02 66.44L51.9 66.56C52.49 67.15 53.11 67.72 53.74 68.26C54.68 69.06 55.67 69.82 56.71 70.45C57.24 70.76 57.77 71.06 58.31 71.3C58.452 71.371 58.5991 71.4269 58.744 71.482C58.8032 71.5045 58.862 71.5268 58.92 71.55L59.03 71.59C59.05 71.595 59.0675 71.6025 59.085 71.61C59.1025 71.6175 59.12 71.625 59.14 71.63C59.185 71.645 59.2275 71.6575 59.27 71.67C59.3125 71.6825 59.355 71.695 59.4 71.71C59.425 71.72 59.4525 71.7275 59.48 71.735C59.5075 71.7425 59.535 71.75 59.56 71.76C59.69 71.8 59.83 71.84 59.97 71.87C61.08 72.15 62.19 72.12 63.1 71.66C64 71.18 64.68 70.26 65.08 69.16C65.14 69.02 65.18 68.88 65.22 68.74C65.2283 68.715 65.2349 68.6917 65.2413 68.6694C65.2501 68.6383 65.2583 68.6091 65.27 68.58C65.3 68.49 65.33 68.4 65.35 68.31C65.36 68.2401 65.38 68.1602 65.3999 68.0803L65.4 68.08ZM48.32 34.51C48.32 34.51 40.49 20.92 27.99 33H28C28 33 32.97 35.55 38.11 35.01C43.1 34.49 46.04 35.05 46.91 35.48C46.91 35.48 40.96 30.45 35.71 31.17C35.71 31.17 39.41 28.47 48.32 34.51ZM49.9441 36.4141C49.9394 36.4261 49.9347 36.438 49.93 36.45V36.43C49.9347 36.4247 49.9394 36.4194 49.9441 36.4141ZM49.9441 36.4141C51.8612 34.2523 54.1573 32.6799 57.15 32.64H57.21C57.46 32.58 57.56 32.17 57.44 31.72C57.33 31.29 57.05 30.98 56.81 31.02C54.1095 31.2193 51.28 33.0272 49.9441 36.4141Z" fill="#DFA84E"/>
</svg>
