<?xml version="1.0" encoding="utf-8"?>
<!-- This file is generated by yarn build:icons -->
<svg xmlns="http://www.w3.org/2000/svg" xmlns:xlink="http://www.w3.org/1999/xlink" width="0" height="0">
<defs>
<symbol viewBox="0 0 256 256" id="devto"><g fill="none"><rect width="256" height="256" fill="currentColor" rx="60" ></rect><path fill="var(--devto-fill)" fill-rule="evenodd" d="M87.375 147.217c0 10.219-6.295 25.701-26.219 25.669H36V83h25.687c19.215 0 25.677 15.46 25.683 25.685zM62.582 99.819c2.104 0 4.213.788 6.316 2.363c2.098 1.575 3.156 3.944 3.16 7.095v37.837c0 3.156-1.05 5.519-3.154 7.095c-2.104 1.575-4.213 2.363-6.317 2.363h-9.46V99.819z" clip-rule="evenodd" ></path><path fill="var(--devto-fill)"  d="M141.959 99.053h-28.886v20.871h17.658v16.064h-17.658v20.866h28.892v16.064h-33.712c-6.05.158-11.081-4.634-11.233-10.696V94.256c-.146-6.057 4.641-11.088 10.686-11.24h34.259zm56.19 62.631c-7.157 16.705-19.979 13.38-25.72 0l-20.89-78.662h17.658l16.108 61.778l16.031-61.778H219z" ></path></g></symbol>
<symbol viewBox="0 0 15 15" id="arrow-right"><path fill-rule="evenodd" d="M8.146 3.146a.5.5 0 0 1 .708 0l4 4a.5.5 0 0 1 0 .708l-4 4a.5.5 0 0 1-.708-.708L11.293 8H2.5a.5.5 0 0 1 0-1h8.793L8.146 3.854a.5.5 0 0 1 0-.708" clip-rule="evenodd"></path></symbol>
<symbol viewBox="0 0 15 15" id="arrow-topRight"><path fill-rule="evenodd" d="M3.646 11.354a.5.5 0 0 1 0-.707L10.293 4H6a.5.5 0 0 1 0-1h5.5a.5.5 0 0 1 .5.5V9a.5.5 0 0 1-1 0V4.707l-6.646 6.647a.5.5 0 0 1-.708 0" clip-rule="evenodd"></path></symbol>
<symbol viewBox="0 0 24 24" id="arrow-trendingUp"><g fill="currentColor"><path d="M2.293 17.707a1 1 0 0 0 1.414 0L9 12.414l3.293 3.293a1 1 0 0 0 1.414 0L20 9.414V14a1 1 0 1 0 2 0V7a1 1 0 0 0-1-1h-7a1 1 0 1 0 0 2h4.586L13 13.586l-3.293-3.293a1 1 0 0 0-1.414 0l-6 6a1 1 0 0 0 0 1.414z"></path></g></symbol>
<symbol viewBox="0 0 15 15" id="arrow-up"><path fill-rule="evenodd" d="M7.146 2.146a.5.5 0 0 1 .708 0l4 4a.5.5 0 0 1-.708.708L8 3.707V12.5a.5.5 0 0 1-1 0V3.707L3.854 6.854a.5.5 0 1 1-.708-.708z" clip-rule="evenodd"></path></symbol>
<symbol viewBox="0 0 24 24" id="clock"><path d="M12 22q-1.875 0-3.512-.712t-2.85-1.925q-1.213-1.213-1.925-2.85T3 13q0-1.875.713-3.512t1.924-2.85q1.213-1.213 2.85-1.925T12 4q1.875 0 3.513.713t2.85 1.925q1.212 1.212 1.925 2.85T21 13q0 1.875-.712 3.513t-1.925 2.85q-1.213 1.212-2.85 1.925T12 22m2.8-4.8l1.4-1.4l-3.2-3.2V8h-2v5.4zM5.6 2.35L7 3.75L2.75 8l-1.4-1.4zm12.8 0l4.25 4.25l-1.4 1.4L17 3.75z"></path></symbol>
<symbol viewBox="0 0 256 199" id="discord"><path d="M216.856 16.597A208.502 208.502 0 0 0 164.042 0c-2.275 4.113-4.933 9.645-6.766 14.046c-19.692-2.961-39.203-2.961-58.533 0c-1.832-4.4-4.55-9.933-6.846-14.046a207.809 207.809 0 0 0-52.855 16.638C5.618 67.147-3.443 116.4 1.087 164.956c22.169 16.555 43.653 26.612 64.775 33.193A161.094 161.094 0 0 0 79.735 175.3a136.413 136.413 0 0 1-21.846-10.632a108.636 108.636 0 0 0 5.356-4.237c42.122 19.702 87.89 19.702 129.51 0a131.66 131.66 0 0 0 5.355 4.237a136.07 136.07 0 0 1-21.886 10.653c4.006 8.02 8.638 15.67 13.873 22.848c21.142-6.58 42.646-16.637 64.815-33.213c5.316-56.288-9.08-105.09-38.056-148.36M85.474 135.095c-12.645 0-23.015-11.805-23.015-26.18s10.149-26.2 23.015-26.2c12.867 0 23.236 11.804 23.015 26.2c.02 14.375-10.148 26.18-23.015 26.18m85.051 0c-12.645 0-23.014-11.805-23.014-26.18s10.148-26.2 23.014-26.2c12.867 0 23.236 11.804 23.015 26.2c0 14.375-10.148 26.18-23.015 26.18"></path></symbol>
<symbol viewBox="0 0 15 15" id="download"><path fill-rule="evenodd" d="M7.5 1.05a.45.45 0 0 1 .45.45v6.914l2.232-2.232a.45.45 0 1 1 .636.636l-3 3a.45.45 0 0 1-.636 0l-3-3a.45.45 0 1 1 .636-.636L7.05 8.414V1.5a.45.45 0 0 1 .45-.45M2.5 10a.5.5 0 0 1 .5.5V12c0 .554.446 1 .996 1h7.005A.999.999 0 0 0 12 12v-1.5a.5.5 0 0 1 1 0V12a2 2 0 0 1-1.999 2H3.996A1.997 1.997 0 0 1 2 12v-1.5a.5.5 0 0 1 .5-.5" clip-rule="evenodd"></path></symbol>
<symbol viewBox="0 0 15 15" id="github"><path fill-rule="evenodd" d="M7.5.25a7.25 7.25 0 0 0-2.292 14.13c.363.066.495-.158.495-.35c0-.172-.006-.628-.01-1.233c-2.016.438-2.442-.972-2.442-.972c-.33-.838-.805-1.06-.805-1.06c-.658-.45.05-.441.05-.441c.728.051 1.11.747 1.11.747c.647 1.108 1.697.788 2.11.602c.066-.468.254-.788.46-.969c-1.61-.183-3.302-.805-3.302-3.583a2.8 2.8 0 0 1 .747-1.945c-.075-.184-.324-.92.07-1.92c0 0 .61-.194 1.994.744A6.963 6.963 0 0 1 7.5 3.756A6.97 6.97 0 0 1 9.315 4c1.384-.938 1.992-.743 1.992-.743c.396.998.147 1.735.072 1.919c.465.507.745 1.153.745 1.945c0 2.785-1.695 3.398-3.31 3.577c.26.224.492.667.492 1.343c0 .97-.009 1.751-.009 1.989c0 .194.131.42.499.349A7.25 7.25 0 0 0 7.499.25" clip-rule="evenodd"></path></symbol>
<symbol viewBox="0 0 24 24" id="image"><g fill="none" stroke="currentColor" stroke-linecap="round" stroke-linejoin="round" stroke-width="2"><rect width="18" height="18" x="3" y="3" rx="2" ry="2"></rect><circle cx="9" cy="9" r="2"></circle><path d="m21 15l-3.086-3.086a2 2 0 0 0-2.828 0L6 21"></path></g></symbol>
<symbol viewBox="0 0 15 15" id="linkedin"><path fill-rule="evenodd" d="M2 1a1 1 0 0 0-1 1v11a1 1 0 0 0 1 1h11a1 1 0 0 0 1-1V2a1 1 0 0 0-1-1zm1.05 5h1.9v6h-1.9zm2.025-1.995a1.075 1.075 0 1 1-2.15 0a1.075 1.075 0 0 1 2.15 0M12 8.357c0-1.805-1.167-2.507-2.326-2.507a2.206 2.206 0 0 0-1.095.231c-.257.13-.526.424-.734.938h-.053V6H6v6.005h1.906V8.81c-.027-.327.077-.75.291-1.001c.215-.252.52-.312.753-.342h.073c.606 0 1.056.375 1.056 1.32v3.217h1.906z" clip-rule="evenodd"></path></symbol>
<symbol viewBox="0 0 15 15" id="mail"><path fill-rule="evenodd" d="M1 2a1 1 0 0 0-1 1v9a1 1 0 0 0 1 1h13a1 1 0 0 0 1-1V3a1 1 0 0 0-1-1zm0 1h13v.925a.448.448 0 0 0-.241.07L7.5 7.967L1.241 3.995A.448.448 0 0 0 1 3.925zm0 1.908V12h13V4.908L7.741 8.88a.45.45 0 0 1-.482 0z" clip-rule="evenodd"></path></symbol>
<symbol viewBox="0 0 24 24" id="menu"><path stroke="currentColor" stroke-linecap="round" stroke-linejoin="round" stroke-width="2" d="M4 12h16M4 6h16M4 18h16"></path></symbol>
<symbol viewBox="0 0 24 24" id="moon"><path stroke="currentColor" stroke-linecap="round" stroke-linejoin="round" stroke-width="2" d="M12 3a6 6 0 0 0 9 9a9 9 0 1 1-9-9"></path></symbol>
<symbol viewBox="0 0 15 15" id="open"><path fill-rule="evenodd" d="M12 13a1 1 0 0 0 1-1V3a1 1 0 0 0-1-1H3a1 1 0 0 0-1 1v3.5a.5.5 0 0 0 1 0V3h9v9H8.5a.5.5 0 0 0 0 1zM9 6.5v3a.5.5 0 0 1-1 0V7.707l-5.146 5.147a.5.5 0 0 1-.708-.708L7.293 7H5.5a.5.5 0 0 1 0-1h3a.498.498 0 0 1 .5.497" clip-rule="evenodd"></path></symbol>
<symbol viewBox="0 0 512 512" id="paper-plane"><path d="M498.1 5.6c10.1 7 15.4 19.1 13.5 31.2l-64 416c-1.5 9.7-7.4 18.2-16 23s-18.9 5.4-28 1.6L284 427.7l-68.5 74.1c-8.9 9.7-22.9 12.9-35.2 8.1S160 493.2 160 480v-83.6c0-4 1.5-7.8 4.2-10.7l167.6-182.9c5.8-6.3 5.6-16-.4-22s-15.7-6.4-22-.7L106 360.8l-88.3-44.2C7.1 311.3.3 300.7 0 288.9s5.9-22.8 16.1-28.7l448-256c10.7-6.1 23.9-5.5 34 1.4"></path></symbol>
<symbol viewBox="0 0 24 24" id="pdf"><path d="M8.267 14.68c-.184 0-.308.018-.372.036v1.178c.076.018.171.023.302.023c.479 0 .774-.242.774-.651c0-.366-.254-.586-.704-.586zm3.487.012c-.2 0-.33.018-.407.036v2.61c.077.018.201.018.313.018c.817.006 1.349-.444 1.349-1.396c.006-.83-.479-1.268-1.255-1.268z"></path><path d="M14 2H6a2 2 0 0 0-2 2v16a2 2 0 0 0 2 2h12a2 2 0 0 0 2-2V8l-6-6zM9.498 16.19c-.309.29-.765.42-1.296.42a2.23 2.23 0 0 1-.308-.018v1.426H7v-3.936A7.558 7.558 0 0 1 8.219 14c.557 0 .953.106 1.22.319c.254.202.426.533.426.923c-.001.392-.131.723-.367.948zm3.807 1.355c-.42.349-1.059.515-1.84.515c-.468 0-.799-.03-1.024-.06v-3.917A7.947 7.947 0 0 1 11.66 14c.757 0 1.249.136 1.633.426c.415.308.675.799.675 1.504c0 .763-.279 1.29-.663 1.615zM17 14.77h-1.532v.911H16.9v.734h-1.432v1.604h-.906V14.03H17v.74zM14 9h-1V4l5 5h-4z"></path></symbol>
<symbol viewBox="0 0 24 24" id="star"><path d="M11.99 2C6.47 2 2 6.48 2 12s4.47 10 9.99 10C17.52 22 22 17.52 22 12S17.52 2 11.99 2m3.23 15.39L12 15.45l-3.22 1.94a.502.502 0 0 1-.75-.54l.85-3.66l-2.83-2.45a.505.505 0 0 1 .29-.88l3.74-.32l1.46-3.45c.17-.41.75-.41.92 0l1.46 3.44l3.74.32a.5.5 0 0 1 .28.88l-2.83 2.45l.85 3.67c.1.43-.36.77-.74.54"></path></symbol>
<symbol viewBox="0 0 15 15" id="sun"><path fill-rule="evenodd" d="M7.5 0a.5.5 0 0 1 .5.5v2a.5.5 0 0 1-1 0v-2a.5.5 0 0 1 .5-.5M2.197 2.197a.5.5 0 0 1 .707 0L4.318 3.61a.5.5 0 0 1-.707.707L2.197 2.904a.5.5 0 0 1 0-.707M.5 7a.5.5 0 0 0 0 1h2a.5.5 0 0 0 0-1zm1.697 5.803a.5.5 0 0 1 0-.707l1.414-1.414a.5.5 0 1 1 .707.707l-1.414 1.414a.5.5 0 0 1-.707 0M12.5 7a.5.5 0 0 0 0 1h2a.5.5 0 0 0 0-1zm-1.818-2.682a.5.5 0 0 1 0-.707l1.414-1.414a.5.5 0 1 1 .707.707L11.39 4.318a.5.5 0 0 1-.707 0M8 12.5a.5.5 0 0 0-1 0v2a.5.5 0 0 0 1 0zm2.682-1.818a.5.5 0 0 1 .707 0l1.414 1.414a.5.5 0 1 1-.707.707l-1.414-1.414a.5.5 0 0 1 0-.707M5.5 7.5a2 2 0 1 1 4 0a2 2 0 0 1-4 0m2-3a3 3 0 1 0 0 6a3 3 0 0 0 0-6" clip-rule="evenodd"></path></symbol>
<symbol viewBox="0 0 256 268" id="twitch"><path d="M17.458 0L0 46.556v186.201h63.983v34.934h34.931l34.898-34.934h52.36L256 162.954V0zm23.259 23.263H232.73v128.029l-40.739 40.741H128L93.113 226.92v-34.886H40.717zm64.008 116.405H128V69.844h-23.275zm63.997 0h23.27V69.844h-23.27z"></path></symbol>
<symbol viewBox="0 0 512 512" id="twitter"><path d="M389.2 48h70.6L305.6 224.2L487 464H345L233.7 318.6L106.5 464H35.8l164.9-188.5L26.8 48h145.6l100.5 132.9zm-24.8 373.8h39.1L151.1 88h-42z"></path></symbol>
</defs>
</svg>
