<svg  width='0' height='0' xmlns="http://www.w3.org/2000/svg">
  
  <!-- social media icons -->
  <symbol viewBox="0 0 16 16" id="logo-linkedin">
    <path fill="currentColor" fill-rule="evenodd" d="M3 1a2 2 0 0 0-2 2v10a2 2 0 0 0 2 2h10a2 2 0 0 0 2-2V3a2 2 0 0 0-2-2zm1.102 4.297a1.195 1.195 0 1 0 0-2.39a1.195 1.195 0 0 0 0 2.39m1 7.516V6.234h-2v6.579zM6.43 6.234h2v.881c.295-.462.943-1.084 2.148-1.084c1.438 0 2.219.953 2.219 2.766c0 .087.008.484.008.484v3.531h-2v-3.53c0-.485-.102-1.438-1.18-1.438c-1.079 0-1.17 1.198-1.195 1.982v2.986h-2z" clip-rule="evenodd" />
  </symbol>
  <symbol xmlns="http://www.w3.org/2000/svg" viewBox="0 0 15 15" id="logo-github">
    <path fill="currentColor" fillRule="evenodd" d="M7.5.25a7.25 7.25 0 0 0-2.292 14.13c.363.066.495-.158.495-.35 0-.172-.006-.628-.01-1.233-2.016.438-2.442-.972-2.442-.972-.33-.838-.805-1.06-.805-1.06-.658-.45.05-.441.05-.441.728.051 1.11.747 1.11.747.647 1.108 1.697.788 2.11.602.066-.468.254-.788.46-.969-1.61-.183-3.302-.805-3.302-3.583a2.8 2.8 0 0 1 .747-1.945c-.075-.184-.324-.92.07-1.92 0 0 .61-.194 1.994.744A6.963 6.963 0 0 1 7.5 3.756 6.97 6.97 0 0 1 9.315 4c1.384-.938 1.992-.743 1.992-.743.396.998.147 1.735.072 1.919.465.507.745 1.153.745 1.945 0 2.785-1.695 3.398-3.31 3.577.26.224.492.667.492 1.343 0 .97-.009 1.751-.009 1.989 0 .194.131.42.499.349A7.25 7.25 0 0 0 7.499.25" clipRule="evenodd" />
  </symbol>
  <symbol viewBox="0 0 512 512" id="logo-x">
    <path fill="currentColor" d="M389.2 48h70.6L305.6 224.2L487 464H345L233.7 318.6L106.5 464H35.8l164.9-188.5L26.8 48h145.6l100.5 132.9zm-24.8 373.8h39.1L151.1 88h-42z" />
  </symbol>
  <symbol viewBox="0 0 256 268" id="logo-twitch">
    <path fill="currentColor" d="M17.458 0L0 46.556v186.201h63.983v34.934h34.931l34.898-34.934h52.36L256 162.954V0zm23.259 23.263H232.73v128.029l-40.739 40.741H128L93.113 226.92v-34.886H40.717zm64.008 116.405H128V69.844h-23.275zm63.997 0h23.27V69.844h-23.27z" />
  </symbol>
  <symbol viewBox="0 0 256 256" id="logo-devto">
    <rect width="256" height="256" fill="currentColor" rx="60" />
    <path fill="#fff" fill-rule="evenodd" d="M87.375 147.217c0 10.219-6.295 25.701-26.219 25.669H36V83h25.687c19.215 0 25.677 15.46 25.683 25.685zM62.582 99.819c2.104 0 4.213.788 6.316 2.363c2.098 1.575 3.156 3.944 3.16 7.095v37.837c0 3.156-1.05 5.519-3.154 7.095c-2.104 1.575-4.213 2.363-6.317 2.363h-9.46V99.819z" clip-rule="evenodd" />
    <path fill="#fff" d="M141.959 99.053h-28.886v20.871h17.658v16.064h-17.658v20.866h28.892v16.064h-33.712c-6.05.158-11.081-4.634-11.233-10.696V94.256c-.146-6.057 4.641-11.088 10.686-11.24h34.259zm56.19 62.631c-7.157 16.705-19.979 13.38-25.72 0l-20.89-78.662h17.658l16.108 61.778l16.031-61.778H219z" />
  </symbol>

  <!-- ui icons -->
  <symbol viewBox="0 0 15 15" id="sun">
    <path fill="currentColor" fill-rule="evenodd" d="M7.5 0a.5.5 0 0 1 .5.5v2a.5.5 0 0 1-1 0v-2a.5.5 0 0 1 .5-.5M2.197 2.197a.5.5 0 0 1 .707 0L4.318 3.61a.5.5 0 0 1-.707.707L2.197 2.904a.5.5 0 0 1 0-.707M.5 7a.5.5 0 0 0 0 1h2a.5.5 0 0 0 0-1zm1.697 5.803a.5.5 0 0 1 0-.707l1.414-1.414a.5.5 0 1 1 .707.707l-1.414 1.414a.5.5 0 0 1-.707 0M12.5 7a.5.5 0 0 0 0 1h2a.5.5 0 0 0 0-1zm-1.818-2.682a.5.5 0 0 1 0-.707l1.414-1.414a.5.5 0 1 1 .707.707L11.39 4.318a.5.5 0 0 1-.707 0M8 12.5a.5.5 0 0 0-1 0v2a.5.5 0 0 0 1 0zm2.682-1.818a.5.5 0 0 1 .707 0l1.414 1.414a.5.5 0 1 1-.707.707l-1.414-1.414a.5.5 0 0 1 0-.707M5.5 7.5a2 2 0 1 1 4 0a2 2 0 0 1-4 0m2-3a3 3 0 1 0 0 6a3 3 0 0 0 0-6" clip-rule="evenodd" />
  </symbol>
  <symbol viewBox="0 0 15 15" id="moon">
    <path fill="currentColor" fill-rule="evenodd" d="M2.9.5a.4.4 0 0 0-.8 0v.6h-.6a.4.4 0 1 0 0 .8h.6v.6a.4.4 0 1 0 .8 0v-.6h.6a.4.4 0 0 0 0-.8h-.6zm3 3a.4.4 0 1 0-.8 0v.6h-.6a.4.4 0 1 0 0 .8h.6v.6a.4.4 0 1 0 .8 0v-.6h.6a.4.4 0 0 0 0-.8h-.6zm-4 3a.4.4 0 1 0-.8 0v.6H.5a.4.4 0 1 0 0 .8h.6v.6a.4.4 0 0 0 .8 0v-.6h.6a.4.4 0 0 0 0-.8h-.6zM8.544.982l-.298-.04c-.213-.024-.34.224-.217.4A6.57 6.57 0 0 1 9.203 5.1a6.602 6.602 0 0 1-6.243 6.59c-.214.012-.333.264-.183.417a6.8 6.8 0 0 0 .21.206l.072.066l.26.226l.188.148l.121.09l.187.131l.176.115c.12.076.244.149.37.217l.264.135l.26.12l.303.122l.244.086a6.568 6.568 0 0 0 1.103.26l.317.04l.267.02a6.6 6.6 0 0 0 6.943-7.328l-.037-.277a6.557 6.557 0 0 0-.384-1.415l-.113-.268l-.077-.166l-.074-.148a6.602 6.602 0 0 0-.546-.883l-.153-.2l-.199-.24l-.163-.18l-.12-.124l-.16-.158l-.223-.2l-.32-.26l-.245-.177l-.292-.19l-.321-.186l-.328-.165l-.113-.052l-.24-.101l-.276-.104l-.252-.082l-.325-.09l-.265-.06zm1.86 4.318a7.578 7.578 0 0 0-.572-2.894a5.601 5.601 0 1 1-4.748 10.146a7.61 7.61 0 0 0 3.66-2.51a.749.749 0 0 0 1.355-.442a.75.75 0 0 0-.584-.732c.062-.116.122-.235.178-.355A1.25 1.25 0 1 0 10.35 6.2c.034-.295.052-.595.052-.9" clip-rule="evenodd" />
  </symbol>
  <symbol viewBox="0 0 15 15" id="envelope">
    <path fill="currentColor" fill-rule="evenodd" d="M1 2a1 1 0 0 0-1 1v9a1 1 0 0 0 1 1h13a1 1 0 0 0 1-1V3a1 1 0 0 0-1-1zm0 1h13v.925a.448.448 0 0 0-.241.07L7.5 7.967L1.241 3.995A.448.448 0 0 0 1 3.925zm0 1.908V12h13V4.908L7.741 8.88a.45.45 0 0 1-.482 0z" clip-rule="evenodd" />
  </symbol>
  <symbol viewBox="0 0 15 15" id="download">
    <path fill="currentColor" fill-rule="evenodd" d="M7.5 1.05a.45.45 0 0 1 .45.45v6.914l2.232-2.232a.45.45 0 1 1 .636.636l-3 3a.45.45 0 0 1-.636 0l-3-3a.45.45 0 1 1 .636-.636L7.05 8.414V1.5a.45.45 0 0 1 .45-.45M2.5 10a.5.5 0 0 1 .5.5V12c0 .554.446 1 .996 1h7.005A.999.999 0 0 0 12 12v-1.5a.5.5 0 0 1 1 0V12a2 2 0 0 1-1.999 2H3.996A1.997 1.997 0 0 1 2 12v-1.5a.5.5 0 0 1 .5-.5" clip-rule="evenodd" />
  </symbol>
  <symbol viewBox="0 0 15 15" id="open">
    <path fill="currentColor" fill-rule="evenodd" d="M12 13a1 1 0 0 0 1-1V3a1 1 0 0 0-1-1H3a1 1 0 0 0-1 1v3.5a.5.5 0 0 0 1 0V3h9v9H8.5a.5.5 0 0 0 0 1zM9 6.5v3a.5.5 0 0 1-1 0V7.707l-5.146 5.147a.5.5 0 0 1-.708-.708L7.293 7H5.5a.5.5 0 0 1 0-1h3a.498.498 0 0 1 .5.497" clip-rule="evenodd" />
  </symbol>
  <symbol viewBox="0 0 24 24" id="pdf">
    <path fill="currentColor" d="M8.267 14.68c-.184 0-.308.018-.372.036v1.178c.076.018.171.023.302.023c.479 0 .774-.242.774-.651c0-.366-.254-.586-.704-.586m3.487.012c-.2 0-.33.018-.407.036v2.61c.077.018.201.018.313.018c.817.006 1.349-.444 1.349-1.396c.006-.83-.479-1.268-1.255-1.268"></path><path fill="currentColor" d="M14 2H6a2 2 0 0 0-2 2v16a2 2 0 0 0 2 2h12a2 2 0 0 0 2-2V8zM9.498 16.19c-.309.29-.765.42-1.296.42a2.23 2.23 0 0 1-.308-.018v1.426H7v-3.936A7.558 7.558 0 0 1 8.219 14c.557 0 .953.106 1.22.319c.254.202.426.533.426.923c-.001.392-.131.723-.367.948m3.807 1.355c-.42.349-1.059.515-1.84.515c-.468 0-.799-.03-1.024-.06v-3.917A7.947 7.947 0 0 1 11.66 14c.757 0 1.249.136 1.633.426c.415.308.675.799.675 1.504c0 .763-.279 1.29-.663 1.615M17 14.77h-1.532v.911H16.9v.734h-1.432v1.604h-.906V14.03H17zM14 9h-1V4l5 5z" />
  </symbol>
  <symbol viewBox="0 0 15 15" id="arrow-up"><path fill="currentColor" fill-rule="evenodd" d="M7.146 2.146a.5.5 0 0 1 .708 0l4 4a.5.5 0 0 1-.708.708L8 3.707V12.5a.5.5 0 0 1-1 0V3.707L3.854 6.854a.5.5 0 1 1-.708-.708z" clip-rule="evenodd"></path></symbol>
  <symbol viewBox="0 0 24 24" id="trending-up">
    <path fill="currentColor" d="M2.086 16.5L8.5 10.086l4 4L17.586 9H13.5V7H21v7.5h-2v-4.086l-6.5 6.5l-4-4l-5 5z" />
  </symbol>
  <symbol viewBox="0 0 15 15" id="arrow-right">
    <path fill="currentColor" fill-rule="evenodd" d="M8.146 3.146a.5.5 0 0 1 .708 0l4 4a.5.5 0 0 1 0 .708l-4 4a.5.5 0 0 1-.708-.708L11.293 8H2.5a.5.5 0 0 1 0-1h8.793L8.146 3.854a.5.5 0 0 1 0-.708" clip-rule="evenodd" />
  </symbol>
  <symbol viewBox="0 0 15 15" id="arrow-top-right">
    <path fill="currentColor" fill-rule="evenodd" d="M3.646 11.354a.5.5 0 0 1 0-.707L10.293 4H6a.5.5 0 0 1 0-1h5.5a.5.5 0 0 1 .5.5V9a.5.5 0 0 1-1 0V4.707l-6.646 6.647a.5.5 0 0 1-.708 0" clip-rule="evenodd" />
  </symbol>
  <symbol viewBox="0 0 512 512" id="paper-plane">
    <path fill="currentColor" d="M498.1 5.6c10.1 7 15.4 19.1 13.5 31.2l-64 416c-1.5 9.7-7.4 18.2-16 23s-18.9 5.4-28 1.6L284 427.7l-68.5 74.1c-8.9 9.7-22.9 12.9-35.2 8.1S160 493.2 160 480v-83.6c0-4 1.5-7.8 4.2-10.7l167.6-182.9c5.8-6.3 5.6-16-.4-22s-15.7-6.4-22-.7L106 360.8l-88.3-44.2C7.1 311.3.3 300.7 0 288.9s5.9-22.8 16.1-28.7l448-256c10.7-6.1 23.9-5.5 34 1.4" />
  </symbol>

  <!-- tech stack icons -->
<symbol viewBox="0 0 512 512" id="logo-nextjs"><path fill="#000" d="M386.399 35.508C217.06-64.061 1.885 57.55.012 253.882c-1.828 191.716 201.063 315.545 370.02 231.163L185.56 213.636v167.997c0 18.614-35.619 18.614-35.619 0V156.421c0-14.776 27.448-15.989 35.226-3.145L395.43 470.572c157.95-101.737 155.817-338.136-9.031-435.064m-23.756 317.939L326.91 298.87V149.458c0-13.932 35.732-13.932 35.732 0z"></path></symbol>
  <symbol viewBox="0 0 256 228" id="logo-react">
   <path fill="#00D8FF" d="M210.483 73.824a171.49 171.49 0 0 0-8.24-2.597c.465-1.9.893-3.777 1.273-5.621c6.238-30.281 2.16-54.676-11.769-62.708c-13.355-7.7-35.196.329-57.254 19.526a171.23 171.23 0 0 0-6.375 5.848a155.866 155.866 0 0 0-4.241-3.917C100.759 3.829 77.587-4.822 63.673 3.233C50.33 10.957 46.379 33.89 51.995 62.588a170.974 170.974 0 0 0 1.892 8.48c-3.28.932-6.445 1.924-9.474 2.98C17.309 83.498 0 98.307 0 113.668c0 15.865 18.582 31.778 46.812 41.427a145.52 145.52 0 0 0 6.921 2.165a167.467 167.467 0 0 0-2.01 9.138c-5.354 28.2-1.173 50.591 12.134 58.266c13.744 7.926 36.812-.22 59.273-19.855a145.567 145.567 0 0 0 5.342-4.923a168.064 168.064 0 0 0 6.92 6.314c21.758 18.722 43.246 26.282 56.54 18.586c13.731-7.949 18.194-32.003 12.4-61.268a145.016 145.016 0 0 0-1.535-6.842c1.62-.48 3.21-.974 4.76-1.488c29.348-9.723 48.443-25.443 48.443-41.52c0-15.417-17.868-30.326-45.517-39.844m-6.365 70.984c-1.4.463-2.836.91-4.3 1.345c-3.24-10.257-7.612-21.163-12.963-32.432c5.106-11 9.31-21.767 12.459-31.957c2.619.758 5.16 1.557 7.61 2.4c23.69 8.156 38.14 20.213 38.14 29.504c0 9.896-15.606 22.743-40.946 31.14m-10.514 20.834c2.562 12.94 2.927 24.64 1.23 33.787c-1.524 8.219-4.59 13.698-8.382 15.893c-8.067 4.67-25.32-1.4-43.927-17.412a156.726 156.726 0 0 1-6.437-5.87c7.214-7.889 14.423-17.06 21.459-27.246c12.376-1.098 24.068-2.894 34.671-5.345a134.17 134.17 0 0 1 1.386 6.193M87.276 214.515c-7.882 2.783-14.16 2.863-17.955.675c-8.075-4.657-11.432-22.636-6.853-46.752a156.923 156.923 0 0 1 1.869-8.499c10.486 2.32 22.093 3.988 34.498 4.994c7.084 9.967 14.501 19.128 21.976 27.15a134.668 134.668 0 0 1-4.877 4.492c-9.933 8.682-19.886 14.842-28.658 17.94M50.35 144.747c-12.483-4.267-22.792-9.812-29.858-15.863c-6.35-5.437-9.555-10.836-9.555-15.216c0-9.322 13.897-21.212 37.076-29.293c2.813-.98 5.757-1.905 8.812-2.773c3.204 10.42 7.406 21.315 12.477 32.332c-5.137 11.18-9.399 22.249-12.634 32.792a134.718 134.718 0 0 1-6.318-1.979m12.378-84.26c-4.811-24.587-1.616-43.134 6.425-47.789c8.564-4.958 27.502 2.111 47.463 19.835a144.318 144.318 0 0 1 3.841 3.545c-7.438 7.987-14.787 17.08-21.808 26.988c-12.04 1.116-23.565 2.908-34.161 5.309a160.342 160.342 0 0 1-1.76-7.887m110.427 27.268a347.8 347.8 0 0 0-7.785-12.803c8.168 1.033 15.994 2.404 23.343 4.08c-2.206 7.072-4.956 14.465-8.193 22.045a381.151 381.151 0 0 0-7.365-13.322m-45.032-43.861c5.044 5.465 10.096 11.566 15.065 18.186a322.04 322.04 0 0 0-30.257-.006c4.974-6.559 10.069-12.652 15.192-18.18M82.802 87.83a323.167 323.167 0 0 0-7.227 13.238c-3.184-7.553-5.909-14.98-8.134-22.152c7.304-1.634 15.093-2.97 23.209-3.984a321.524 321.524 0 0 0-7.848 12.897zm8.081 65.352c-8.385-.936-16.291-2.203-23.593-3.793c2.26-7.3 5.045-14.885 8.298-22.6a321.187 321.187 0 0 0 7.257 13.246c2.594 4.48 5.28 8.868 8.038 13.147m37.542 31.03c-5.184-5.592-10.354-11.779-15.403-18.433c4.902.192 9.899.29 14.978.29c5.218 0 10.376-.117 15.453-.343c-4.985 6.774-10.018 12.97-15.028 18.486m52.198-57.817c3.422 7.8 6.306 15.345 8.596 22.52c-7.422 1.694-15.436 3.058-23.88 4.071a382.417 382.417 0 0 0 7.859-13.026a347.403 347.403 0 0 0 7.425-13.565m-16.898 8.101a358.557 358.557 0 0 1-12.281 19.815a329.4 329.4 0 0 1-23.444.823c-7.967 0-15.716-.248-23.178-.732a310.202 310.202 0 0 1-12.513-19.846h.001a307.41 307.41 0 0 1-10.923-20.627a310.278 310.278 0 0 1 10.89-20.637l-.001.001a307.318 307.318 0 0 1 12.413-19.761c7.613-.576 15.42-.876 23.31-.876H128c7.926 0 15.743.303 23.354.883a329.357 329.357 0 0 1 12.335 19.695a358.489 358.489 0 0 1 11.036 20.54a329.472 329.472 0 0 1-11 20.722m22.56-122.124c8.572 4.944 11.906 24.881 6.52 51.026c-.344 1.668-.73 3.367-1.15 5.09c-10.622-2.452-22.155-4.275-34.23-5.408c-7.034-10.017-14.323-19.124-21.64-27.008a160.789 160.789 0 0 1 5.888-5.4c18.9-16.447 36.564-22.941 44.612-18.3M128 90.808c12.625 0 22.86 10.235 22.86 22.86s-10.235 22.86-22.86 22.86s-22.86-10.235-22.86-22.86s10.235-22.86 22.86-22.86" />
  </symbol>
  <symbol viewBox="0 0 256 366" id="logo-astro">
    <path d="M182.022 9.147c2.982 3.702 4.502 8.697 7.543 18.687L256 246.074a276.467 276.467 0 0 0-79.426-26.891L133.318 73.008a5.63 5.63 0 0 0-10.802.017L79.784 219.11A276.453 276.453 0 0 0 0 246.04L66.76 27.783c3.051-9.972 4.577-14.959 7.559-18.654a24.541 24.541 0 0 1 9.946-7.358C88.67 0 93.885 0 104.314 0h47.683c10.443 0 15.664 0 20.074 1.774a24.545 24.545 0 0 1 9.95 7.373"></path><path fill="#FF5D01" d="M189.972 256.46c-10.952 9.364-32.812 15.751-57.992 15.751c-30.904 0-56.807-9.621-63.68-22.56c-2.458 7.415-3.009 15.903-3.009 21.324c0 0-1.619 26.623 16.898 45.14c0-9.615 7.795-17.41 17.41-17.41c16.48 0 16.46 14.378 16.446 26.043l-.001 1.041c0 17.705 10.82 32.883 26.21 39.28a35.685 35.685 0 0 1-3.588-15.647c0-16.886 9.913-23.173 21.435-30.48c9.167-5.814 19.353-12.274 26.372-25.232a47.588 47.588 0 0 0 5.742-22.735c0-5.06-.786-9.938-2.243-14.516" />
  </symbol>
  <symbol viewBox="0 0 256 256" id="logo-ts">
    <path fill="#3178C6" d="M20 0h216c11.046 0 20 8.954 20 20v216c0 11.046-8.954 20-20 20H20c-11.046 0-20-8.954-20-20V20C0 8.954 8.954 0 20 0"></path><path fill="#FFF" d="M150.518 200.475v27.62c4.492 2.302 9.805 4.028 15.938 5.179c6.133 1.151 12.597 1.726 19.393 1.726c6.622 0 12.914-.633 18.874-1.899c5.96-1.266 11.187-3.352 15.678-6.257c4.492-2.906 8.048-6.704 10.669-11.394c2.62-4.689 3.93-10.486 3.93-17.391c0-5.006-.749-9.394-2.246-13.163a30.748 30.748 0 0 0-6.479-10.055c-2.821-2.935-6.205-5.567-10.149-7.898c-3.945-2.33-8.394-4.531-13.347-6.602c-3.628-1.497-6.881-2.949-9.761-4.359c-2.879-1.41-5.327-2.848-7.342-4.316c-2.016-1.467-3.571-3.021-4.665-4.661c-1.094-1.64-1.641-3.495-1.641-5.567c0-1.899.489-3.61 1.468-5.135s2.362-2.834 4.147-3.927c1.785-1.094 3.973-1.942 6.565-2.547c2.591-.604 5.471-.906 8.638-.906c2.304 0 4.737.173 7.299.518c2.563.345 5.14.877 7.732 1.597a53.669 53.669 0 0 1 7.558 2.719a41.7 41.7 0 0 1 6.781 3.797v-25.807c-4.204-1.611-8.797-2.805-13.778-3.582c-4.981-.777-10.697-1.165-17.147-1.165c-6.565 0-12.784.705-18.658 2.115c-5.874 1.409-11.043 3.61-15.506 6.602c-4.463 2.993-7.99 6.805-10.582 11.437c-2.591 4.632-3.887 10.17-3.887 16.615c0 8.228 2.375 15.248 7.127 21.06c4.751 5.811 11.963 10.731 21.638 14.759a291.458 291.458 0 0 1 10.625 4.575c3.283 1.496 6.119 3.049 8.509 4.66c2.39 1.611 4.276 3.366 5.658 5.265c1.382 1.899 2.073 4.057 2.073 6.474a9.901 9.901 0 0 1-1.296 4.963c-.863 1.524-2.174 2.848-3.93 3.97c-1.756 1.122-3.945 1.999-6.565 2.632c-2.62.633-5.687.95-9.2.95c-5.989 0-11.92-1.05-17.794-3.151c-5.875-2.1-11.317-5.25-16.327-9.451m-46.036-68.733H140V109H41v22.742h35.345V233h28.137z" />
  </symbol>
  <symbol viewBox="0 0 24 24" id="logo-shadcn">
    <path fill="#888888" d="M22.219 11.784L11.784 22.219a1.045 1.045 0 0 0 1.476 1.476L23.695 13.26a1.045 1.045 0 0 0-1.476-1.476M20.132.305L.305 20.132a1.045 1.045 0 0 0 1.476 1.476L21.608 1.781A1.045 1.045 0 0 0 20.132.305" />
  </symbol>
  <symbol viewBox="0 0 128 128" id="logo-tailwindcss">
    <path fill="#38bdf8" d="M64.004 25.602c-17.067 0-27.73 8.53-32 25.597c6.398-8.531 13.867-11.73 22.398-9.597c4.871 1.214 8.352 4.746 12.207 8.66C72.883 56.629 80.145 64 96.004 64c17.066 0 27.73-8.531 32-25.602c-6.399 8.536-13.867 11.735-22.399 9.602c-4.87-1.215-8.347-4.746-12.207-8.66c-6.27-6.367-13.53-13.738-29.394-13.738M32.004 64c-17.066 0-27.73 8.531-32 25.602C6.402 81.066 13.87 77.867 22.402 80c4.871 1.215 8.352 4.746 12.207 8.66c6.274 6.367 13.536 13.738 29.395 13.738c17.066 0 27.73-8.53 32-25.597c-6.399 8.531-13.867 11.73-22.399 9.597c-4.87-1.214-8.347-4.746-12.207-8.66C55.128 71.371 47.868 64 32.004 64m0 0" />
  </symbol>
  <symbol viewBox="0 0 128 128" id="logo-sanity">
    <path fill="#F03E2F" d="M0 0h128v128H0z"></path><path fill="#FFF" d="M39.423 33.163c0 10.998 6.913 17.543 20.754 20.993l14.666 3.341c13.099 2.956 21.075 10.298 21.075 22.258a22.465 22.465 0 0 1-4.884 14.408c0-11.933-6.283-18.38-21.439-22.258l-14.4-3.217c-11.532-2.585-20.432-8.62-20.432-21.612a22.353 22.353 0 0 1 4.66-13.913"></path><path fill="#F9B1AB" d="M82.022 76.827c6.256 3.932 8.998 9.431 8.998 17.323c-5.177 6.516-14.274 10.173-24.965 10.173c-17.997 0-30.592-8.702-33.391-23.825h17.283c2.225 6.943 8.117 10.16 15.981 10.16c9.6 0 15.982-5.032 16.108-13.859M48.407 49.468a18.225 18.225 0 0 1-6.781-6.935a17.82 17.82 0 0 1-2.203-9.37c4.996-6.462 13.686-10.407 24.28-10.407c18.333 0 28.94 9.513 31.558 22.904H78.635c-1.833-5.28-6.423-9.39-14.792-9.39c-8.942 0-15.044 5.114-15.394 13.198" />
  </symbol>
  <symbol viewBox="0 0 512 349" id="logo-mysql">
    <path fill="#00758F" d="m152.31 230.297l15.56 50.487c3.496 11.463 4.954 19.465 4.37 24.026c8.51-22.792 14.456-47.63 17.839-74.513h18.71c-8.045 43.766-18.656 75.57-31.827 95.41c-10.262 15.289-21.504 22.933-33.746 22.933c-3.264 0-7.288-.986-12.063-2.944v-10.55c2.333.342 5.07.525 8.218.525c5.711 0 10.314-1.583 13.816-4.742c4.193-3.849 6.292-8.175 6.292-12.97c0-3.274-1.637-9.993-4.896-20.157l-21.68-67.505zM33.223 199.266l28.5 86.956h.176l28.675-86.956h23.428c5.13 43.124 8.16 82.581 9.09 118.346H103.34c-.695-33.433-2.62-64.871-5.768-94.32H97.4l-30.078 94.32H52.28l-29.896-94.32h-.176c-2.218 28.282-3.614 59.72-4.196 94.32H0c1.164-42.08 4.077-81.525 8.739-118.346z"></path><path fill="#F29111" d="M352.498 197.51c30.657 0 45.986 19.586 45.986 58.739c0 21.276-4.61 37.347-13.821 48.204c-1.66 1.984-3.495 3.698-5.427 5.286l21.695 10.727l-.021-.001l-7.703 13.302l-28.253-16.485c-4.683 1.387-9.836 2.08-15.451 2.08c-15.053 0-26.297-4.387-33.731-13.15c-8.16-9.694-12.238-24.955-12.238-45.757c0-21.156 4.602-37.166 13.816-48.037c8.392-9.944 20.11-14.909 35.148-14.909m-93.88.172c10.957 0 20.92 2.932 29.894 8.775l-4.558 10.157c-7.679-3.264-15.25-4.903-22.716-4.903c-6.058 0-10.726 1.458-13.98 4.392c-3.272 2.908-5.296 6.65-5.296 11.212c0 7.01 4.994 13.089 14.215 18.225a816.32 816.32 0 0 1 9.031 5.011l.688.387l.345.194l.689.387l.344.194l.688.388c6.98 3.935 13.548 7.691 13.548 7.691c9.22 6.545 13.816 13.523 13.816 25.016c0 10.037-3.678 18.276-11.01 24.723c-7.337 6.418-17.194 9.636-29.538 9.636c-11.545 0-22.734-3.704-33.572-11.05l5.07-10.166c9.327 4.675 17.767 7.01 25.346 7.01c7.108 0 12.672-1.587 16.697-4.721c4.017-3.157 6.424-7.56 6.424-13.143c0-7.027-4.888-13.034-13.855-18.073a897.982 897.982 0 0 1-8.395-4.697l-.687-.389c-1.262-.713-2.533-1.435-3.778-2.142l-.675-.384c-6.055-3.444-11.29-6.453-11.29-6.453c-8.964-6.557-13.459-13.592-13.459-25.184c0-9.587 3.352-17.336 10.046-23.231c6.71-5.908 15.367-8.862 25.968-8.862m175.895 1.584v103.788h37.238v14.558h-56.124V199.266zm57.93 103.833v2.46h-4.094v12.04h-3.13v-12.04h-4.253v-2.46zm7.56 0l3.931 9.884l3.611-9.884h4.437v14.5h-2.95v-11.035l-4.11 11.035h-2.127l-4.117-11.035h-.158v11.035h-2.791v-14.5zM350.57 212.064c-18.066 0-27.104 14.91-27.104 44.71c0 17.07 2.395 29.448 7.176 37.163c4.428 7.14 11.363 10.703 20.806 10.703c18.066 0 27.103-15.026 27.103-45.064c0-16.831-2.395-29.103-7.17-36.822c-4.433-7.124-11.365-10.69-20.81-10.69"></path><path fill="#00758F" d="M303.218 7.333c5.993-14.726 26.948-3.574 35.08 1.57c1.993 1.287 4.279 4.006 6.564 5.011c3.565.14 7.127.419 10.698.568c6.698 1.574 12.972 2.86 18.25 5.866c24.528 14.445 40.495 29.165 55.19 53.479c3.14 5.15 4.709 10.723 7.274 16.296c3.56 8.307 7.56 17.027 11.692 24.882c1.85 3.724 3.281 7.865 5.85 11.01c1.003 1.438 3.852 1.862 5.555 2.721c4.708 2.437 10.412 4.287 14.84 7.147c8.269 5.156 16.264 11.3 23.532 17.59c2.709 2.428 4.555 5.865 7.136 8.433v1.296c-2.291.703-4.574 1.423-6.859 2c-4.991 1.282-9.412.992-14.254 2.275c-2.992.868-6.707 2.013-9.845 2.304l.29.292c1.846 5.275 11.834 9.565 16.402 12.72c5.548 4.004 10.689 8.86 14.827 14.437c1.429 1.423 2.858 2.718 4.28 4.137c.994 1.438 1.274 3.298 2.28 4.58v.434c-1.114-.393-1.915-1.143-2.674-1.927l-.453-.473c-.453-.47-.91-.932-1.431-1.313c-3.148-2.15-6.274-4.722-9.422-6.721c-5.412-3.434-11.689-5.427-17.246-8.874c-3.142-2.001-6.137-4.28-9.132-6.57c-2.715-2.007-5.705-5.861-7.411-8.721c-1.005-1.58-1.143-3.437-2.291-4.58c.205-1.909 1.954-2.476 3.719-2.942l.406-.107c.609-.158 1.205-.316 1.725-.525c7.414-3.148 16.253-4.29 27.667-4.004c-.43-2.866-7.562-6.437-9.839-8.153c-4.57-3.294-9.409-6.731-14.257-9.729c-2.569-1.57-6.996-2.716-9.842-3.999c-3.851-1.574-12.41-3.147-14.544-6.145c-3.625-4.726-6.229-10.363-8.757-16.057l-.688-1.554a803.85 803.85 0 0 0-.69-1.553c-2.988-6.857-6.7-14.006-9.695-21.027c-1.566-3.425-2.285-6.431-4-9.716c-10.407-20.158-25.81-37.035-44.485-48.904c-6.137-3.862-12.98-7.436-20.534-9.865c-4.281-1.293-9.419-.578-13.98-1.57h-3.002c-2.562-.722-4.701-3.438-6.7-4.87c-4.415-2.998-8.837-5.011-14.117-7.15c-1.85-.858-7.133-2.856-8.977-1.283c-1.142.287-1.721.718-2.002 1.864c-1.136 1.71-.137 4.286.57 5.863c2.142 4.57 5.134 7.286 7.85 11.148c2.416 3.425 5.417 7.287 7.13 11.011c3.696 8.005 5.417 16.874 8.842 24.878c1.27 3.01 3.279 6.435 5.128 9.15c1.567 2.155 4.416 3.713 5.278 6.441c1.718 2.86-2.572 12.297-3.565 15.294c-3.715 11.727-2.995 28.028 1.283 38.193l.228.536l.228.543c1.562 3.723 3.234 7.732 7.387 8.773c.286-.284 0-.135.567-.284c1.005-7.868 1.288-15.445 4-21.601c1.567-3.849 4.696-6.57 6.841-9.712c1.43.856 1.43 3.437 2.282 5.145c1.856 4.43 3.849 9.287 6.137 13.73c4.696 9.15 9.98 18.021 15.967 26.025c2.005 2.859 4.85 6.006 7.416 8.581c1.143.997 2.423 1.573 3.282 2.856h.28v.432c-4.278-1.577-6.99-6.003-10.402-8.587c-6.424-4.857-14.117-12.151-18.545-19.15c-1.852-4.018-3.854-7.869-5.85-11.867v-.289c-.853 1.142-.567 2.276-.994 4.004c-1.852 7.145-.426 15.296-6.843 17.866c-7.274 3.01-12.7-4.857-14.977-8.432c-7.276-11.866-9.269-31.884-4.138-48.043c1.14-3.577 1.295-7.867 3.285-10.723c-.43-2.582-2.42-3.288-3.571-4.87c-1.996-2.704-3.705-5.854-5.268-8.857c-3.002-5.866-5.138-12.875-7.417-19.166c-1.002-2.569-1.289-5.148-2.288-7.58c-1.704-3.712-4.845-7.436-7.268-10.72c-3.281-4.72-12.837-13.868-8.985-23.168m46.772 28.015c.381.382.841.716 1.317 1.045l.574.394c.765.53 1.506 1.088 1.96 1.848c.72 1.006.854 1.999 1.716 3.007c0 3.437-.996 5.722-3.007 7.146c0 0-.137.15-.278.29c-1.14-2.291-2.139-4.57-3.287-6.859c-1.414-1.998-3.413-3.583-4.565-5.866h-.277v-.287c1.721-.425 3.428-.718 5.847-.718" />
  </symbol>
  <symbol viewBox="0 0 256 549" id="logo-mongodb">
    <path fill="#01EC64" d="M175.622 61.108C152.612 33.807 132.797 6.078 128.749.32a1.03 1.03 0 0 0-1.492 0c-4.048 5.759-23.863 33.487-46.874 60.788c-197.507 251.896 31.108 421.89 31.108 421.89l1.917 1.28c1.704 26.234 5.966 63.988 5.966 63.988h17.045s4.26-37.54 5.965-63.987l1.918-1.494c.213.214 228.828-169.78 31.32-421.677m-47.726 418.05s-10.227-8.744-12.997-13.222v-.428l12.358-274.292c0-.853 1.279-.853 1.279 0l12.357 274.292v.428c-2.77 4.478-12.997 13.223-12.997 13.223" />
  </symbol>
  <symbol viewBox="0 0 256 222" id="logo-vercel">
    <path d="m128 0l128 221.705H0z" />
  </symbol>
</svg>